<svg width="1920" height="1123" viewBox="0 0 1920 1123" fill="none" xmlns="http://www.w3.org/2000/svg">
<path d="M693.155 180.221C526.604 117.326 456.141 221.306 441 229.421V1094.74H1470V170.077C1372.17 100.283 1282.87 129.837 1250.46 153.338C1110.23 38.0978 975.009 87.3997 924.927 126.456C804.731 62.7488 720.331 135.755 693.155 180.221Z" fill="#15171B" stroke="url(#paint0_linear_646_1756)" stroke-width="2"/>
<path d="M206 163.903C160 10.703 29.5 -6.93034 -30 3.403V1093.9H1196V675.903C1177.6 518.703 1079.67 481.069 1033 481.903C1019 326.703 890.5 326.569 828 345.903C762.4 231.503 665.333 265.569 625 296.903C593.4 233.303 517.5 257.736 483.5 277.903C413.5 116.703 269.333 134.736 206 163.903Z" fill="#15171B" stroke="url(#paint1_linear_646_1756)" stroke-width="2"/>
<path d="M1667.77 137.817C1744.73 4.07993 1871.99 35.57 1926 68.0323V1200.74H887V481.535C931.963 404.042 1007.68 414.18 1039.91 428.936C1064.22 306.447 1174.6 324.779 1226.75 349.256C1243.36 234.266 1346.75 239.544 1396.37 256.556C1444.58 61.1577 1597.39 95.981 1667.77 137.817Z" fill="#15171B" stroke="url(#paint2_linear_646_1756)" stroke-width="2"/>
<path d="M233.5 425.083C187.5 281.918 9.33334 259.944 -74 266.853V1216.74H1994V381.608C1924.8 294.253 1837.17 386.326 1802 443.282C1668.4 340.963 1592 446.147 1570.5 511.528C1458.1 399.099 1376.67 472.097 1350 522.65C1265.2 425.588 1155.33 460.975 1111 490.801C1066.6 437.418 1020.83 468.558 1003.5 490.801C917.5 429.734 857.333 492.992 838 532.255C766 427.509 652 460.975 604 490.801C491.6 328.628 310.167 379.417 233.5 425.083Z" fill="#15171B" stroke="url(#paint3_linear_646_1756)" stroke-width="2"/>
<defs>
<linearGradient id="paint0_linear_646_1756" x1="955.5" y1="81.7383" x2="955.5" y2="1094.74" gradientUnits="userSpaceOnUse">
<stop offset="0.477083" stop-color="#FDFDFF"/>
<stop offset="1" stop-color="#FDFDFF" stop-opacity="0"/>
</linearGradient>
<linearGradient id="paint1_linear_646_1756" x1="583" y1="1" x2="583" y2="1093.9" gradientUnits="userSpaceOnUse">
<stop offset="0.477083" stop-color="#FDFDFF"/>
<stop offset="1" stop-color="#FDFDFF" stop-opacity="0"/>
</linearGradient>
<linearGradient id="paint2_linear_646_1756" x1="1406.5" y1="39.7383" x2="1406.5" y2="1200.74" gradientUnits="userSpaceOnUse">
<stop offset="0.477083" stop-color="#FDFDFF"/>
<stop offset="1" stop-color="#FDFDFF" stop-opacity="0"/>
</linearGradient>
<linearGradient id="paint3_linear_646_1756" x1="960" y1="265.738" x2="960" y2="1216.74" gradientUnits="userSpaceOnUse">
<stop offset="0.477083" stop-color="#FDFDFF"/>
<stop offset="1" stop-color="#FDFDFF" stop-opacity="0"/>
</linearGradient>
</defs>
</svg>
